<?xml version="1.0" encoding="UTF-8"?>
<svg id="Calque_1" xmlns="http://www.w3.org/2000/svg" version="1.1" viewBox="0 0 160 160">
  <!-- Generator: Adobe Illustrator 29.3.1, SVG Export Plug-In . SVG Version: 2.1.0 Build 151)  -->
  <defs>
    <style>
      .st0 {
        fill: #e56805;
      }

      .st1 {
        fill: #692e17;
      }

      .st2 {
        fill: #fb8e02;
      }

      .st3 {
        fill: #ecb37e;
      }

      .st4 {
        fill: #131816;
      }
    </style>
  </defs>
  <g>
    <g>
      <path class="st4" d="M69.22,70.16l-3.59,5.78c.51-2.96.54-5.98.47-8.99-.1-4.83-.17-11.58-4.64-14.57-.85-.57-1.75-.91-2.68-1.3-.08-.98.15-1.9-.42-2.78-.83-1.27-4.05-2.57-5.46-3.44-1.98-1.22-3.5-2.75-5.34-4.04-1.27-.89-2.71-1.54-4-2.4-3.75-2.5-7.13-5.98-10.26-9.19v74.45c0,.09-.76,1.24-.92,1.58-.26.6-1.6,3.92-1.82,4.12-.28.24-1.1.26-1.49.31V20.08s.24-.28.31-.31c.35-.16,3.35-.15,3.65.06.51.68.04,1.86.34,2.51.15.34,2.25,2.85,2.65,3.29,3.52,3.84,7.54,4.66,11.53,7.37,1.07.73,2.07,1.88,3.12,2.5,1.48.87,6.85,3.05,8.47,3.25,2.53.32,3.79.07,6.16,1.5.75.45,1.46,1.32,2.09,1.66.31.17,2.39.86,2.59.73.18-.6.7-1.37.77-1.98.06-.54-.25-1.23-.29-1.83-.21-3.13,1.49-7.51,4.97-8.01,7.14-1.03,7.56,8.26,2.77,11.99-.36.28-1.5.8-1.6,1.05-.06.15-.39,1.68-.33,1.75.7.15,1.58.93,2.27.95.44.01,1.3-.51,1.84-.64,1.77-.44,3.67-.54,5.49-.44.64.03,1.56.38,2.17.31.67-.07,2.87-1.24,3.76-1.56,1.79-.65,4.49-1.17,6.05-1.91.93-.44,2.01-1.46,2.98-2.02,1.31-.75,2.74-1.21,4.07-1.87,1.25-.63,6.02-2.83,6.64-3.67.33-.45.51-1.2.8-1.7,1.06-1.82,2.4-1.95,3.96-3.07.94-.68,3.43-3.55,4.55-2,.73,1.01-.92,3.29-1.51,4.26-.74,1.22-2.07,3.31-3.17,4.17-.81.63-1.93,1.06-2.81,1.72-2.89,2.16-5.22,5-8.38,7.09-2.02,1.34-4.15,2.05-6.16,3.22-2.14,1.24-4,3.07-6.33,4.06-1.13-.45-2.24-.73-3.44-.94-.1-.02-.21.02-.31,0-.14-.02-.32-.12-.62-.16-.98-.11-1.83-.13-2.81-.16-.16-.26-.59-.16-.86-.16-1.02-.01-2.24-.12-3.21.16-.26,0-.52,0-.78,0-.79-.26-2.03-.26-2.81,0-.1,0-.21,0-.31,0-.02-.24-.45-.24-.47,0-.31,0-.63,0-.94,0-.56-.26-1.66-.26-2.19,0-.16,0-.31,0-.47,0l-.08-.16-.23.16c-.1,0-.21,0-.31,0l-.08-.15-.08.15c-.1,0-.21,0-.31,0-.78-.26-2.02-.26-2.81,0l-.13.07c.17.25,0,.49-.02.71-.02.26,0,.52,0,.78,0,.21,0,.42,0,.62-.03,2.01-.49,16.04,0,16.72Z"/>
      <path class="st1" d="M85.31,51.25c-1.35-.04-2.71.01-4.06,0,.96-.28,2.18-.17,3.21-.16.26,0,.69-.1.86.16Z"/>
      <path class="st1" d="M72.19,51.25c-.94,0-1.88,0-2.81,0,.79-.26,2.03-.26,2.81,0Z"/>
      <path class="st1" d="M80.47,51.25c-.94,0-1.88,0-2.81,0,.78-.26,2.02-.26,2.81,0Z"/>
      <path class="st1" d="M75.94,51.25c-.73,0-1.46,0-2.19,0,.52-.26,1.63-.26,2.19,0Z"/>
      <path class="st0" d="M69.22,52.81c0-.26-.02-.52,0-.78.25.1.25.68,0,.78Z"/>
      <path class="st1" d="M77.34,51.25c-.16,0-.31,0-.47,0,.02-.24.45-.24.47,0Z"/>
      <path class="st1" d="M73.28,51.25c-.1,0-.21,0-.31,0l.23-.16.08.16Z"/>
      <path class="st1" d="M72.66,51.25c-.05,0-.1,0-.16,0l.08-.15.08.15Z"/>
    </g>
    <g>
      <g>
        <path class="st0" d="M54.92,51.25c10.78.95,9.77,11.22,9.76,19.3,0,3.38-.04,5.85-1.9,8.87-3.83,6.19-10.78,5.42-17.16,5.11.52,3.04-2.15,4.21-3.5,6.42-.8,1.3-1.37,3.17-2.21,4.35-.45.64-1.32,1.27-1.87,1.88-.82.93-1.61,1.88-2.42,2.81v-48.75h19.3ZM54.84,70.94c.18-2.26.32-5.01.16-7.27-.12-1.74-.65-3.23-2.4-3.85-.15-.05-.9-.28-.97-.28h-6.02v16.41c1.72,0,3.44,0,5.16,0,.03,0,.22.17.53.17,1.92-.03,3.18-1.67,3.46-3.44.1-.62.02-1.14.07-1.73Z"/>
        <path class="st4" d="M50.78,75.94c1.81-1.27,3.2-2.95,4.06-5-.05.58.03,1.11-.07,1.73-.29,1.77-1.55,3.41-3.46,3.44-.31,0-.5-.17-.53-.17Z"/>
      </g>
      <path class="st4" d="M33.28,117.66c-.2.59-.13.8-.16,1.41-.01.31,0,.63,0,.94,0,.88,0,1.77,0,2.66-.08.29.02.62-.42.75-.35.1-2.65.1-3.1.04-.8-.1-.72-.58-.7-1.26-2.08,1.94-3.53.12-3.26-2.25.15-1.35,1.28-2.4,1.39-3.31.1-.81-.26-2.22-.15-3.26.32-3.19,3.18-1.61,4.6-3.53,1.62-2.18,2.73-5.39,4.24-7.79s2.91-3.41,4.75-5.41c1.3-1.42,1.9-3.99,3.06-5.69s3.14-2.75,3.36-5.15c6.07.19,12.72.25,16.63-5.17.03.69-.36,1.64-.63,2.34-1.53,3.97-4.39,7.61-7.57,10.4-1.21,1.06-3.34,2.16-4.3,3.2-.68.72-.91,1.82-1.48,2.58-.76,1.03-2.05,1.69-2.81,2.5-1.19,1.28-2.3,3.44-3.67,4.92-2.8,3.05-8.43,7.1-9.77,11.09Z"/>
    </g>
  </g>
  <g>
    <g>
      <path class="st0" d="M88.12,51.41c.31.04.48.13.62.16h-.31s0,.15,0,.15c.21,0,.53.08.62-.15,1.2.21,2.31.49,3.44.94,4.37,1.73,6.91,5.63,7.5,10.24-.12,9.3.69,19.17.16,28.43-.47,8.2-5.32,12.38-13.36,12.89h-17.42s0-33.05,0-33.05l.17-.76c-.01-.14-.31-.07-.32-.09-.49-.68-.03-14.71,0-16.72h.31s0-2.03,0-2.03h16.8c.4,0,1.36.46,1.8,0ZM79.38,95.78h5.39c3.06,0,5.18-2.47,5.4-5.38.61-8.36-.46-17.49-.02-25.93-.21-2.58-2.59-4.94-5.22-4.94h-5.47l-.08,36.25Z"/>
      <path class="st2" d="M72.19,51.25c.1,0,.21,0,.31,0,.05,0,.1,0,.16,0,.1,0,.21,0,.31,0s.21,0,.31,0c.16,0,.31,0,.47,0,.73,0,1.46,0,2.19,0,.31,0,.63,0,.94,0,.16,0,.31,0,.47,0,.1,0,.21,0,.31,0,.94,0,1.88,0,2.81,0,.26,0,.52,0,.78,0,1.35.01,2.71-.04,4.06,0,.98.03,1.83.04,2.81.16-.44.46-1.4,0-1.8,0h-16.8v2.03s-.31,0-.31,0c0-.21,0-.42,0-.62.25-.1.25-.68,0-.78.02-.22.19-.45.02-.71l.13-.07c.94,0,1.88,0,2.81,0Z"/>
      <path class="st2" d="M88.75,51.56c.1.02.22-.02.31,0-.09.24-.42.15-.62.15v-.15s.31,0,.31,0Z"/>
    </g>
    <g>
      <path class="st0" d="M135,62.97c.08,2.07-.06,4.17,0,6.25h-9.53c-.1-3.62,1.03-9.61-4.13-10.01-3.25-.25-5.03,1.62-5.25,4.76-.63,9.06.49,18.85,0,27.98.35,3.36,3.34,5.14,6.52,4.01,1.45-.51,2.86-2.5,2.86-4.02v-6.02h9.69c-.06,3.38.22,7.09-.83,10.35-4.17,13.01-28.48,10.84-28.4-3.85.46-9.53-.59-19.6,0-29.07.64-10.11,8.74-13.87,18-12.54,6.67.96,10.79,5.4,11.06,12.14Z"/>
      <path class="st3" d="M134.84,69.22h-9.38,9.38Z"/>
      <path class="st3" d="M135,69.22c-.06-2.08.08-4.18,0-6.25.26.16.16.59.16.86.02,1.55.14,3.52,0,5.01-.01.15.04.37-.16.38Z"/>
    </g>
  </g>
</svg>