<?xml version="1.0" encoding="UTF-8"?>
<svg id="Calque_1" xmlns="http://www.w3.org/2000/svg" version="1.1" viewBox="0 0 160 160">
  <!-- Generator: Adobe Illustrator 29.3.1, SVG Export Plug-In . SVG Version: 2.1.0 Build 151)  -->
  <defs>
    <style>
      .st0 {
        fill: #e56805;
      }

      .st1 {
        fill: #fff;
      }

      .st2 {
        fill: #fb8e02;
      }

      .st3 {
        fill: #ecb37e;
      }
    </style>
  </defs>
  <g>
    <g>
      <path class="st1" d="M69.2,78.6l-3.6,5.8c.5-3,.5-6,.5-9,0-4.8-.2-11.6-4.6-14.6-.8-.6-1.8-.9-2.7-1.3,0-1,.2-1.9-.4-2.8-.8-1.3-4-2.6-5.5-3.4-2-1.2-3.5-2.8-5.3-4-1.3-.9-2.7-1.5-4-2.4-3.8-2.5-7.1-6-10.3-9.2v74.5c0,0-.8,1.2-.9,1.6-.3.6-1.6,3.9-1.8,4.1-.3.2-1.1.3-1.5.3V28.5s.2-.3.3-.3c.4-.2,3.3-.1,3.7,0,.5.7,0,1.9.3,2.5.2.3,2.2,2.9,2.7,3.3,3.5,3.8,7.5,4.7,11.5,7.4,1.1.7,2.1,1.9,3.1,2.5,1.5.9,6.8,3,8.5,3.2,2.5.3,3.8,0,6.2,1.5.8.5,1.5,1.3,2.1,1.7.3.2,2.4.9,2.6.7.2-.6.7-1.4.8-2,0-.5-.2-1.2-.3-1.8-.2-3.1,1.5-7.5,5-8,7.1-1,7.6,8.3,2.8,12-.4.3-1.5.8-1.6,1,0,.2-.4,1.7-.3,1.8.7.2,1.6.9,2.3,1,.4,0,1.3-.5,1.8-.6,1.8-.4,3.7-.5,5.5-.4.6,0,1.6.4,2.2.3.7,0,2.9-1.2,3.8-1.6,1.8-.7,4.5-1.2,6.1-1.9.9-.4,2-1.5,3-2,1.3-.8,2.7-1.2,4.1-1.9,1.2-.6,6-2.8,6.6-3.7.3-.5.5-1.2.8-1.7,1.1-1.8,2.4-2,4-3.1.9-.7,3.4-3.5,4.6-2,.7,1-.9,3.3-1.5,4.3-.7,1.2-2.1,3.3-3.2,4.2-.8.6-1.9,1.1-2.8,1.7-2.9,2.2-5.2,5-8.4,7.1-2,1.3-4.2,2-6.2,3.2-2.1,1.2-4,3.1-6.3,4.1-1.1-.5-2.2-.7-3.4-.9,0,0-.2,0-.3,0-.1,0-.3-.1-.6-.2-1-.1-1.8-.1-2.8-.2-.2-.3-.6-.2-.9-.2-1,0-2.2-.1-3.2.2h-.8c-.8-.3-2-.3-2.8,0h-.3c0-.2-.4-.2-.5,0h-.9c-.6-.3-1.7-.3-2.2,0h-.5v-.2c0,0-.3.2-.3.2h-.3v-.2c0,0-.2.2-.2.2h-.3c-.8-.3-2-.3-2.8,0h-.1c.2.3,0,.6,0,.8,0,.3,0,.5,0,.8v.6c0,2-.5,16,0,16.7h0Z"/>
      <path class="st1" d="M85.3,59.7c-1.3,0-2.7,0-4.1,0,1-.3,2.2-.2,3.2-.2.3,0,.7,0,.9.2h0Z"/>
      <path class="st1" d="M72.2,59.7h-2.8c.8-.3,2-.3,2.8,0Z"/>
      <path class="st1" d="M80.5,59.7h-2.8c.8-.3,2-.3,2.8,0Z"/>
      <path class="st1" d="M75.9,59.7h-2.2c.5-.3,1.6-.3,2.2,0Z"/>
      <path class="st1" d="M69.2,61.2c0-.3,0-.5,0-.8.2,0,.2.7,0,.8Z"/>
      <path class="st1" d="M77.3,59.7h-.5c0-.2.4-.2.5,0Z"/>
      <path class="st1" d="M73.3,59.7h-.3l.2-.2s0,.2,0,.2Z"/>
      <path class="st1" d="M72.7,59.7h-.2v-.2c0,0,.2.2.2.2Z"/>
    </g>
    <g>
      <g>
        <path class="st0" d="M54.9,59.7c10.8,1,9.8,11.2,9.8,19.3,0,3.4,0,5.8-1.9,8.9-3.8,6.2-10.8,5.4-17.2,5.1.5,3-2.2,4.2-3.5,6.4-.8,1.3-1.4,3.2-2.2,4.3-.5.6-1.3,1.3-1.9,1.9-.8.9-1.6,1.9-2.4,2.8v-48.8h19.3,0ZM54.8,79.4c.2-2.3.3-5,.2-7.3-.1-1.7-.7-3.2-2.4-3.8-.2,0-.9-.3-1-.3h-6v16.4h5.2s.2.2.5.2c1.9,0,3.2-1.7,3.5-3.4,0-.6,0-1.1,0-1.7h0Z"/>
        <path class="st1" d="M50.8,84.4c1.8-1.3,3.2-2.9,4.1-5,0,.6,0,1.1,0,1.7-.3,1.8-1.5,3.4-3.5,3.4-.3,0-.5-.2-.5-.2Z"/>
      </g>
      <path class="st1" d="M33.3,126.1c-.2.6-.1.8-.2,1.4,0,.3,0,.6,0,.9v2.7c0,.3,0,.6-.4.8-.3,0-2.6,0-3.1,0-.8,0-.7-.6-.7-1.3-2.1,1.9-3.5.1-3.3-2.2.1-1.3,1.3-2.4,1.4-3.3.1-.8-.3-2.2-.1-3.3.3-3.2,3.2-1.6,4.6-3.5,1.6-2.2,2.7-5.4,4.2-7.8s2.9-3.4,4.8-5.4c1.3-1.4,1.9-4,3.1-5.7s3.1-2.8,3.4-5.2c6.1.2,12.7.2,16.6-5.2,0,.7-.4,1.6-.6,2.3-1.5,4-4.4,7.6-7.6,10.4-1.2,1.1-3.3,2.2-4.3,3.2-.7.7-.9,1.8-1.5,2.6-.8,1-2,1.7-2.8,2.5-1.2,1.3-2.3,3.4-3.7,4.9-2.8,3.1-8.4,7.1-9.8,11.1h0Z"/>
    </g>
  </g>
  <g>
    <g>
      <path class="st0" d="M88.1,59.8c.3,0,.5.1.6.2h-.3v.2c.2,0,.5,0,.6-.2,1.2.2,2.3.5,3.4.9,4.4,1.7,6.9,5.6,7.5,10.2-.1,9.3.7,19.2.2,28.4-.5,8.2-5.3,12.4-13.4,12.9h-17.4v-33l.2-.8c0-.1-.3,0-.3,0-.5-.7,0-14.7,0-16.7h.3v-2h16.8c.4,0,1.4.5,1.8,0h0ZM79.4,104.2h5.4c3.1,0,5.2-2.5,5.4-5.4.6-8.4-.5-17.5,0-25.9-.2-2.6-2.6-4.9-5.2-4.9h-5.5v36.2Z"/>
      <path class="st2" d="M72.2,59.7h9.1c1.3,0,2.7,0,4.1,0,1,0,1.8,0,2.8.2-.4.5-1.4,0-1.8,0h-16.8v2h-.3v-.6c.2,0,.2-.7,0-.8,0-.2.2-.5,0-.7h.1c.9,0,1.9,0,2.8,0h0Z"/>
      <path class="st2" d="M88.8,60c0,0,.2,0,.3,0,0,.2-.4.2-.6.2v-.2h.3Z"/>
    </g>
    <g>
      <path class="st0" d="M135,71.4c0,2.1,0,4.2,0,6.2h-9.5c0-3.6,1-9.6-4.1-10-3.2-.2-5,1.6-5.2,4.8-.6,9.1.5,18.8,0,28,.3,3.4,3.3,5.1,6.5,4,1.4-.5,2.9-2.5,2.9-4v-6h9.7c0,3.4.2,7.1-.8,10.3-4.2,13-28.5,10.8-28.4-3.8.5-9.5-.6-19.6,0-29.1.6-10.1,8.7-13.9,18-12.5,6.7,1,10.8,5.4,11.1,12.1h0Z"/>
      <path class="st3" d="M134.8,77.6h-9.4,9.4Z"/>
      <path class="st3" d="M135,77.6c0-2.1,0-4.2,0-6.2.3.2.2.6.2.9,0,1.6.1,3.5,0,5,0,.2,0,.4-.2.4Z"/>
    </g>
  </g>
</svg>